# xmcd
#
# Track frame offsets:
#	150
#	14478
#	28409
#	42503
#	60364
#	69799
#	86840
#	104460
#	117543
#	133493
#
# Disc length: 1967 seconds
# Revision: 0
# Processed by: cddbd v1.5.2PL0 Copyright (c) Steve Scherf et al.
# Submitted via: dBpowerAMP V12.0
#
DISCID=9207ad0a
DTITLE=Manon Bédard - Tel Que Promis
DYEAR=2009
DGENRE=Country
TTITLE0=Au Bout du Rang
TTITLE1=La 20
TTITLE2=Dans les Bayous
TTITLE3=Reste Avec Lui
TTITLE4=Qui a Tué Léon Boule de Gomme
TTITLE5=D'hier à Aujourd'hui
TTITLE6=Crois en l'Amour
TTITLE7=Si tu Veux de Moi
TTITLE8=Mieux Vaut en Rire
TTITLE9=Something to Talk About
EXTD=
EXTT0=
EXTT1=
EXTT2=
EXTT3=
EXTT4=
EXTT5=
EXTT6=
EXTT7=
EXTT8=
EXTT9=
PLAYORDER=
